<svg width="691" height="216" viewBox="0 0 691 216" fill="none" xmlns="http://www.w3.org/2000/svg">
<path d="M689.853 129.176C689.853 140.88 680.412 152.171 662.972 162.542C645.564 172.894 620.342 182.234 589.131 190.085C526.717 205.784 440.466 215.5 345.176 215.5C249.887 215.5 163.636 205.784 101.222 190.085C70.0108 182.234 44.7886 172.894 27.3812 162.542C9.94124 152.171 0.5 140.88 0.5 129.176C0.5 117.473 9.94124 106.182 27.3812 95.8106C44.7886 85.4585 70.0108 76.1185 101.222 68.2679C163.636 52.5685 249.887 42.8529 345.176 42.8529C440.466 42.8529 526.717 52.5685 589.131 68.2679C620.342 76.1185 645.564 85.4585 662.972 95.8106C680.412 106.182 689.853 117.473 689.853 129.176Z" stroke="black"/>
<path d="M689.853 30.7059C689.853 31.5611 689.367 32.483 688.241 33.4693C687.119 34.4528 685.419 35.4455 683.141 36.4356C678.59 38.4142 671.847 40.3341 663.124 42.1687C645.686 45.8362 620.434 49.1424 589.209 51.9202C526.763 57.4752 440.484 60.9118 345.176 60.9118C249.869 60.9118 163.59 57.4752 101.144 51.9202C69.9185 49.1424 44.6666 45.8362 27.2286 42.1687C18.5056 40.3341 11.7634 38.4142 7.2121 36.4356C4.93445 35.4455 3.2344 34.4528 2.11156 33.4693C0.985646 32.483 0.5 31.5611 0.5 30.7059C0.5 29.8506 0.985646 28.9287 2.11156 27.9425C3.2344 26.959 4.93445 25.9663 7.2121 24.9761C11.7634 22.9976 18.5056 21.0777 27.2286 19.2431C44.6666 15.5755 69.9185 12.2693 101.144 9.49158C163.59 3.93659 249.869 0.5 345.176 0.5C440.484 0.5 526.763 3.93659 589.209 9.49158C620.434 12.2693 645.686 15.5755 663.124 19.2431C671.847 21.0777 678.59 22.9976 683.141 24.9761C685.419 25.9663 687.119 26.959 688.241 27.9425C689.367 28.9287 689.853 29.8506 689.853 30.7059Z" stroke="black"/>
<rect x="0.5" y="0.5" width="689.353" height="215" stroke="black"/>
</svg>
